<mxfile host="app.diagrams.net" modified="2021-10-08T06:44:27.310Z" agent="5.0 (Windows NT 10.0; Win64; x64) AppleWebKit/537.36 (KHTML, like Gecko) Chrome/94.0.4606.71 Safari/537.36 Edg/94.0.992.38" etag="CWepkwBXOdED7eM3F9xk" version="15.4.3" type="github">
  <diagram id="MUoORn6wszVXvdyLwniP" name="Page-1">
    <mxGraphModel dx="3875" dy="2073" grid="1" gridSize="10" guides="1" tooltips="1" connect="1" arrows="1" fold="1" page="1" pageScale="1" pageWidth="827" pageHeight="1169" math="0" shadow="0">
      <root>
        <mxCell id="0" />
        <mxCell id="1" parent="0" />
        <mxCell id="nbN2-iraiTUeK_ynoPOd-4" style="edgeStyle=orthogonalEdgeStyle;rounded=0;orthogonalLoop=1;jettySize=auto;html=1;exitX=0.5;exitY=1;exitDx=0;exitDy=0;" edge="1" parent="1" source="nbN2-iraiTUeK_ynoPOd-2" target="nbN2-iraiTUeK_ynoPOd-3">
          <mxGeometry relative="1" as="geometry" />
        </mxCell>
        <mxCell id="nbN2-iraiTUeK_ynoPOd-2" value="开始" style="rounded=1;whiteSpace=wrap;html=1;" vertex="1" parent="1">
          <mxGeometry x="360" y="20" width="70" height="30" as="geometry" />
        </mxCell>
        <mxCell id="nbN2-iraiTUeK_ynoPOd-6" style="edgeStyle=orthogonalEdgeStyle;rounded=0;orthogonalLoop=1;jettySize=auto;html=1;exitX=0.5;exitY=1;exitDx=0;exitDy=0;entryX=0.5;entryY=0;entryDx=0;entryDy=0;" edge="1" parent="1" source="nbN2-iraiTUeK_ynoPOd-3" target="nbN2-iraiTUeK_ynoPOd-5">
          <mxGeometry relative="1" as="geometry" />
        </mxCell>
        <mxCell id="nbN2-iraiTUeK_ynoPOd-3" value="连接数据库" style="rounded=0;whiteSpace=wrap;html=1;" vertex="1" parent="1">
          <mxGeometry x="352.5" y="80" width="85" height="30" as="geometry" />
        </mxCell>
        <mxCell id="nbN2-iraiTUeK_ynoPOd-9" style="edgeStyle=orthogonalEdgeStyle;rounded=0;orthogonalLoop=1;jettySize=auto;html=1;exitX=0.5;exitY=1;exitDx=0;exitDy=0;" edge="1" parent="1" source="nbN2-iraiTUeK_ynoPOd-5" target="nbN2-iraiTUeK_ynoPOd-7">
          <mxGeometry relative="1" as="geometry" />
        </mxCell>
        <mxCell id="nbN2-iraiTUeK_ynoPOd-5" value="&lt;span&gt;输入user_id&lt;/span&gt;" style="rounded=0;whiteSpace=wrap;html=1;" vertex="1" parent="1">
          <mxGeometry x="347.5" y="140" width="95" height="30" as="geometry" />
        </mxCell>
        <mxCell id="nbN2-iraiTUeK_ynoPOd-8" style="edgeStyle=orthogonalEdgeStyle;rounded=0;orthogonalLoop=1;jettySize=auto;html=1;entryX=0.5;entryY=1;entryDx=0;entryDy=0;" edge="1" parent="1" target="nbN2-iraiTUeK_ynoPOd-5">
          <mxGeometry relative="1" as="geometry">
            <mxPoint x="395" y="170" as="sourcePoint" />
          </mxGeometry>
        </mxCell>
        <mxCell id="nbN2-iraiTUeK_ynoPOd-11" style="edgeStyle=orthogonalEdgeStyle;rounded=0;orthogonalLoop=1;jettySize=auto;html=1;exitX=1;exitY=0.5;exitDx=0;exitDy=0;entryX=1;entryY=0.25;entryDx=0;entryDy=0;" edge="1" parent="1" source="nbN2-iraiTUeK_ynoPOd-7" target="nbN2-iraiTUeK_ynoPOd-5">
          <mxGeometry relative="1" as="geometry">
            <Array as="points">
              <mxPoint x="540" y="240" />
              <mxPoint x="540" y="148" />
            </Array>
          </mxGeometry>
        </mxCell>
        <mxCell id="nbN2-iraiTUeK_ynoPOd-14" style="edgeStyle=orthogonalEdgeStyle;rounded=0;orthogonalLoop=1;jettySize=auto;html=1;exitX=0.5;exitY=1;exitDx=0;exitDy=0;entryX=0.5;entryY=0;entryDx=0;entryDy=0;startArrow=none;" edge="1" parent="1" source="nbN2-iraiTUeK_ynoPOd-12" target="nbN2-iraiTUeK_ynoPOd-13">
          <mxGeometry relative="1" as="geometry" />
        </mxCell>
        <mxCell id="nbN2-iraiTUeK_ynoPOd-7" value="是否存在" style="rhombus;whiteSpace=wrap;html=1;" vertex="1" parent="1">
          <mxGeometry x="347.5" y="210" width="95" height="60" as="geometry" />
        </mxCell>
        <mxCell id="nbN2-iraiTUeK_ynoPOd-10" value="否" style="edgeLabel;html=1;align=center;verticalAlign=middle;resizable=0;points=[];fontSize=19;" vertex="1" connectable="0" parent="1">
          <mxGeometry x="540.0000000000002" y="200.8333333333337" as="geometry" />
        </mxCell>
        <mxCell id="nbN2-iraiTUeK_ynoPOd-17" style="edgeStyle=orthogonalEdgeStyle;rounded=0;orthogonalLoop=1;jettySize=auto;html=1;exitX=0.5;exitY=1;exitDx=0;exitDy=0;entryX=0.5;entryY=0;entryDx=0;entryDy=0;" edge="1" parent="1" source="nbN2-iraiTUeK_ynoPOd-13" target="nbN2-iraiTUeK_ynoPOd-16">
          <mxGeometry relative="1" as="geometry" />
        </mxCell>
        <mxCell id="nbN2-iraiTUeK_ynoPOd-13" value="&lt;font style=&quot;font-size: 14px&quot;&gt;根据id查找做题记录&lt;/font&gt;" style="rounded=0;whiteSpace=wrap;html=1;fontSize=19;" vertex="1" parent="1">
          <mxGeometry x="327.5" y="330" width="135" height="40" as="geometry" />
        </mxCell>
        <mxCell id="nbN2-iraiTUeK_ynoPOd-12" value="是" style="text;html=1;align=center;verticalAlign=middle;resizable=0;points=[];autosize=1;strokeColor=none;fontSize=19;" vertex="1" parent="1">
          <mxGeometry x="380" y="280" width="30" height="30" as="geometry" />
        </mxCell>
        <mxCell id="nbN2-iraiTUeK_ynoPOd-15" value="" style="edgeStyle=orthogonalEdgeStyle;rounded=0;orthogonalLoop=1;jettySize=auto;html=1;exitX=0.5;exitY=1;exitDx=0;exitDy=0;entryX=0.5;entryY=0;entryDx=0;entryDy=0;endArrow=none;" edge="1" parent="1" source="nbN2-iraiTUeK_ynoPOd-7" target="nbN2-iraiTUeK_ynoPOd-12">
          <mxGeometry relative="1" as="geometry">
            <mxPoint x="395" y="270" as="sourcePoint" />
            <mxPoint x="395" y="330" as="targetPoint" />
          </mxGeometry>
        </mxCell>
        <mxCell id="nbN2-iraiTUeK_ynoPOd-19" style="edgeStyle=orthogonalEdgeStyle;rounded=0;orthogonalLoop=1;jettySize=auto;html=1;exitX=0.5;exitY=1;exitDx=0;exitDy=0;entryX=0.5;entryY=0;entryDx=0;entryDy=0;" edge="1" parent="1" source="nbN2-iraiTUeK_ynoPOd-16" target="nbN2-iraiTUeK_ynoPOd-18">
          <mxGeometry relative="1" as="geometry" />
        </mxCell>
        <mxCell id="nbN2-iraiTUeK_ynoPOd-16" value="&lt;font style=&quot;font-size: 14px&quot;&gt;查询lab_label表获取题目对应题目标签&lt;/font&gt;" style="rounded=0;whiteSpace=wrap;html=1;fontSize=19;" vertex="1" parent="1">
          <mxGeometry x="327.5" y="400" width="135" height="60" as="geometry" />
        </mxCell>
        <mxCell id="nbN2-iraiTUeK_ynoPOd-21" style="edgeStyle=orthogonalEdgeStyle;rounded=0;orthogonalLoop=1;jettySize=auto;html=1;exitX=0.5;exitY=1;exitDx=0;exitDy=0;" edge="1" parent="1" source="nbN2-iraiTUeK_ynoPOd-18" target="nbN2-iraiTUeK_ynoPOd-20">
          <mxGeometry relative="1" as="geometry" />
        </mxCell>
        <mxCell id="nbN2-iraiTUeK_ynoPOd-18" value="&lt;font style=&quot;font-size: 14px&quot;&gt;存储user_id,label_id,score元组&lt;/font&gt;" style="rounded=0;whiteSpace=wrap;html=1;fontSize=19;" vertex="1" parent="1">
          <mxGeometry x="291.25" y="480" width="207.5" height="30" as="geometry" />
        </mxCell>
        <mxCell id="nbN2-iraiTUeK_ynoPOd-23" style="edgeStyle=orthogonalEdgeStyle;rounded=0;orthogonalLoop=1;jettySize=auto;html=1;exitX=0.5;exitY=1;exitDx=0;exitDy=0;entryX=0.5;entryY=0;entryDx=0;entryDy=0;" edge="1" parent="1" source="nbN2-iraiTUeK_ynoPOd-20" target="nbN2-iraiTUeK_ynoPOd-22">
          <mxGeometry relative="1" as="geometry" />
        </mxCell>
        <mxCell id="nbN2-iraiTUeK_ynoPOd-20" value="&lt;font style=&quot;font-size: 14px&quot;&gt;数据简化：同label_id的score合并求均值&lt;/font&gt;" style="rounded=0;whiteSpace=wrap;html=1;fontSize=19;" vertex="1" parent="1">
          <mxGeometry x="312.5" y="540" width="165" height="50" as="geometry" />
        </mxCell>
        <mxCell id="nbN2-iraiTUeK_ynoPOd-25" style="edgeStyle=orthogonalEdgeStyle;rounded=0;orthogonalLoop=1;jettySize=auto;html=1;exitX=0.5;exitY=1;exitDx=0;exitDy=0;entryX=0.5;entryY=0;entryDx=0;entryDy=0;" edge="1" parent="1" source="nbN2-iraiTUeK_ynoPOd-22" target="nbN2-iraiTUeK_ynoPOd-24">
          <mxGeometry relative="1" as="geometry" />
        </mxCell>
        <mxCell id="nbN2-iraiTUeK_ynoPOd-22" value="&lt;font style=&quot;font-size: 14px&quot;&gt;插入数据库的personal_lab表&lt;/font&gt;" style="rounded=0;whiteSpace=wrap;html=1;fontSize=19;" vertex="1" parent="1">
          <mxGeometry x="337.5" y="620" width="115" height="50" as="geometry" />
        </mxCell>
        <mxCell id="nbN2-iraiTUeK_ynoPOd-27" style="edgeStyle=orthogonalEdgeStyle;rounded=0;orthogonalLoop=1;jettySize=auto;html=1;exitX=0.5;exitY=1;exitDx=0;exitDy=0;" edge="1" parent="1" source="nbN2-iraiTUeK_ynoPOd-24" target="nbN2-iraiTUeK_ynoPOd-26">
          <mxGeometry relative="1" as="geometry" />
        </mxCell>
        <mxCell id="nbN2-iraiTUeK_ynoPOd-24" value="对personal_lab表根据user_id进行分组降序排列（选中两个label标签）" style="rounded=0;whiteSpace=wrap;html=1;fontSize=14;" vertex="1" parent="1">
          <mxGeometry x="309.75" y="700" width="170.5" height="50" as="geometry" />
        </mxCell>
        <mxCell id="nbN2-iraiTUeK_ynoPOd-29" style="edgeStyle=orthogonalEdgeStyle;rounded=0;orthogonalLoop=1;jettySize=auto;html=1;exitX=0.5;exitY=1;exitDx=0;exitDy=0;entryX=0.5;entryY=0;entryDx=0;entryDy=0;" edge="1" parent="1" source="nbN2-iraiTUeK_ynoPOd-26" target="nbN2-iraiTUeK_ynoPOd-28">
          <mxGeometry relative="1" as="geometry" />
        </mxCell>
        <mxCell id="nbN2-iraiTUeK_ynoPOd-26" value="搜索题库" style="rounded=0;whiteSpace=wrap;html=1;fontSize=14;" vertex="1" parent="1">
          <mxGeometry x="355" y="770" width="80" height="20" as="geometry" />
        </mxCell>
        <mxCell id="nbN2-iraiTUeK_ynoPOd-31" style="edgeStyle=orthogonalEdgeStyle;rounded=0;orthogonalLoop=1;jettySize=auto;html=1;exitX=0.5;exitY=1;exitDx=0;exitDy=0;entryX=0.5;entryY=0;entryDx=0;entryDy=0;" edge="1" parent="1" source="nbN2-iraiTUeK_ynoPOd-28" target="nbN2-iraiTUeK_ynoPOd-30">
          <mxGeometry relative="1" as="geometry" />
        </mxCell>
        <mxCell id="nbN2-iraiTUeK_ynoPOd-28" value="输出推荐结果" style="rounded=0;whiteSpace=wrap;html=1;fontSize=14;" vertex="1" parent="1">
          <mxGeometry x="345" y="810" width="100" height="30" as="geometry" />
        </mxCell>
        <mxCell id="nbN2-iraiTUeK_ynoPOd-33" style="edgeStyle=orthogonalEdgeStyle;rounded=0;orthogonalLoop=1;jettySize=auto;html=1;exitX=0.5;exitY=1;exitDx=0;exitDy=0;entryX=0.5;entryY=0;entryDx=0;entryDy=0;" edge="1" parent="1" source="nbN2-iraiTUeK_ynoPOd-30" target="nbN2-iraiTUeK_ynoPOd-32">
          <mxGeometry relative="1" as="geometry" />
        </mxCell>
        <mxCell id="nbN2-iraiTUeK_ynoPOd-30" value="关闭数据库连接" style="rounded=0;whiteSpace=wrap;html=1;fontSize=14;" vertex="1" parent="1">
          <mxGeometry x="341.5" y="870" width="107" height="30" as="geometry" />
        </mxCell>
        <mxCell id="nbN2-iraiTUeK_ynoPOd-32" value="结束" style="rounded=1;whiteSpace=wrap;html=1;fontSize=14;" vertex="1" parent="1">
          <mxGeometry x="353.75" y="940" width="82.5" height="30" as="geometry" />
        </mxCell>
        <mxCell id="nbN2-iraiTUeK_ynoPOd-48" value="" style="ellipse;whiteSpace=wrap;html=1;" vertex="1" parent="1">
          <mxGeometry x="1250" y="390" width="120" height="80" as="geometry" />
        </mxCell>
      </root>
    </mxGraphModel>
  </diagram>
</mxfile>
